<svg width="40" height="41" viewBox="0 0 40 41" fill="none" xmlns="http://www.w3.org/2000/svg">
<rect width="40" height="40.0771" rx="8" fill="#F9AA01"/>
<path d="M21.9708 7.53768C21.1573 6.83876 19.8362 6.83876 19.0227 7.53768L8.61011 16.484C7.79663 17.1829 7.79663 18.3179 8.61011 19.0169C9.4236 19.7158 10.7447 19.7158 11.5582 19.0169L18.4175 13.1179V30.2724C18.4175 31.2621 19.3481 32.0617 20.5 32.0617C21.6519 32.0617 22.5825 31.2621 22.5825 30.2724V13.1179L29.4418 19.0113C30.2553 19.7102 31.5764 19.7102 32.3899 19.0113C33.2034 18.3124 33.2034 17.1773 32.3899 16.4784L21.9773 7.53209L21.9708 7.53768Z" fill="#1B1426"/>
</svg>
